# Blender 4.2.1 LTS
# www.blender.org
mtllib Museum.mtl
o Plane
v -50.000000 0.000000 50.000000
v 50.000000 0.000000 50.000000
v -50.000000 0.000000 -50.000000
v 50.000000 0.000000 -50.000000
vn -0.0000 1.0000 -0.0000
vt 0.000000 0.000000
vt 1.000000 0.000000
vt 1.000000 1.000000
vt 0.000000 1.000000
s 0
f 1/1/1 2/2/1 4/3/1 3/4/1
o Cube
v -24.000000 0.000000 10.000000
v -24.000000 16.000000 10.000000
v -24.000000 0.000000 -30.000000
v -24.000000 16.000000 -30.000000
v 50.000000 0.000000 10.000000
v 50.000000 16.000000 10.000000
v 50.000000 0.000000 -30.000000
v 50.000000 16.000000 -30.000000
vn -1.0000 -0.0000 -0.0000
vn -0.0000 -0.0000 -1.0000
vn 1.0000 -0.0000 -0.0000
vn -0.0000 -0.0000 1.0000
vn -0.0000 -1.0000 -0.0000
vn -0.0000 1.0000 -0.0000
vt 0.375000 0.000000
vt 0.625000 0.000000
vt 0.625000 0.250000
vt 0.375000 0.250000
vt 0.625000 0.500000
vt 0.375000 0.500000
vt 0.625000 0.750000
vt 0.375000 0.750000
vt 0.625000 1.000000
vt 0.375000 1.000000
vt 0.125000 0.500000
vt 0.125000 0.750000
vt 0.875000 0.500000
vt 0.875000 0.750000
s 0
f 5/5/2 6/6/2 8/7/2 7/8/2
f 7/8/3 8/7/3 12/9/3 11/10/3
f 11/10/4 12/9/4 10/11/4 9/12/4
f 9/12/5 10/11/5 6/13/5 5/14/5
f 7/15/6 11/10/6 9/12/6 5/16/6
f 12/9/7 8/17/7 6/18/7 10/11/7
o Cube.001
v -50.000000 0.000000 52.000000
v -50.000000 16.000000 52.000000
v -50.000000 0.000000 50.000000
v -50.000000 16.000000 50.000000
v 50.000000 0.000000 52.000000
v 50.000000 16.000000 52.000000
v 50.000000 0.000000 50.000000
v 50.000000 16.000000 50.000000
vn -1.0000 -0.0000 -0.0000
vn -0.0000 -0.0000 -1.0000
vn 1.0000 -0.0000 -0.0000
vn -0.0000 -0.0000 1.0000
vn -0.0000 -1.0000 -0.0000
vn -0.0000 1.0000 -0.0000
vt 0.375000 0.000000
vt 0.625000 0.000000
vt 0.625000 0.250000
vt 0.375000 0.250000
vt 0.625000 0.500000
vt 0.375000 0.500000
vt 0.625000 0.750000
vt 0.375000 0.750000
vt 0.625000 1.000000
vt 0.375000 1.000000
vt 0.125000 0.500000
vt 0.125000 0.750000
vt 0.875000 0.500000
vt 0.875000 0.750000
s 0
f 13/19/8 14/20/8 16/21/8 15/22/8
f 15/22/9 16/21/9 20/23/9 19/24/9
f 19/24/10 20/23/10 18/25/10 17/26/10
f 17/26/11 18/25/11 14/27/11 13/28/11
f 15/29/12 19/24/12 17/26/12 13/30/12
f 20/23/13 16/31/13 14/32/13 18/25/13
o Cube.002
v -50.000000 0.000000 -50.000000
v -50.000000 16.000000 -50.000000
v -50.000000 0.000000 -52.000000
v -50.000000 16.000000 -52.000000
v 50.000000 0.000000 -50.000000
v 50.000000 16.000000 -50.000000
v 50.000000 0.000000 -52.000000
v 50.000000 16.000000 -52.000000
vn -1.0000 -0.0000 -0.0000
vn -0.0000 -0.0000 -1.0000
vn 1.0000 -0.0000 -0.0000
vn -0.0000 -0.0000 1.0000
vn -0.0000 -1.0000 -0.0000
vn -0.0000 1.0000 -0.0000
vt 0.375000 0.000000
vt 0.625000 0.000000
vt 0.625000 0.250000
vt 0.375000 0.250000
vt 0.625000 0.500000
vt 0.375000 0.500000
vt 0.625000 0.750000
vt 0.375000 0.750000
vt 0.625000 1.000000
vt 0.375000 1.000000
vt 0.125000 0.500000
vt 0.125000 0.750000
vt 0.875000 0.500000
vt 0.875000 0.750000
s 0
f 21/33/14 22/34/14 24/35/14 23/36/14
f 23/36/15 24/35/15 28/37/15 27/38/15
f 27/38/16 28/37/16 26/39/16 25/40/16
f 25/40/17 26/39/17 22/41/17 21/42/17
f 23/43/18 27/38/18 25/40/18 21/44/18
f 28/37/19 24/45/19 22/46/19 26/39/19
o Cube.003
v 50.000000 0.000000 50.000000
v 50.000000 16.000000 50.000000
v 50.000000 0.000000 -50.000000
v 50.000000 16.000000 -50.000000
v 52.000000 0.000000 50.000000
v 52.000000 16.000000 50.000000
v 52.000000 0.000000 -50.000000
v 52.000000 16.000000 -50.000000
vn -1.0000 -0.0000 -0.0000
vn -0.0000 -0.0000 -1.0000
vn 1.0000 -0.0000 -0.0000
vn -0.0000 -0.0000 1.0000
vn -0.0000 -1.0000 -0.0000
vn -0.0000 1.0000 -0.0000
vt 0.375000 0.000000
vt 0.625000 0.000000
vt 0.625000 0.250000
vt 0.375000 0.250000
vt 0.625000 0.500000
vt 0.375000 0.500000
vt 0.625000 0.750000
vt 0.375000 0.750000
vt 0.625000 1.000000
vt 0.375000 1.000000
vt 0.125000 0.500000
vt 0.125000 0.750000
vt 0.875000 0.500000
vt 0.875000 0.750000
s 0
f 29/47/20 30/48/20 32/49/20 31/50/20
f 31/50/21 32/49/21 36/51/21 35/52/21
f 35/52/22 36/51/22 34/53/22 33/54/22
f 33/54/23 34/53/23 30/55/23 29/56/23
f 31/57/24 35/52/24 33/54/24 29/58/24
f 36/51/25 32/59/25 30/60/25 34/53/25
o Cube.004
v -52.000000 0.000000 50.000000
v -52.000000 16.000000 50.000000
v -52.000000 0.000000 -50.000000
v -52.000000 16.000000 -50.000000
v -50.000000 0.000000 50.000000
v -50.000000 16.000000 50.000000
v -50.000000 0.000000 -50.000000
v -50.000000 16.000000 -50.000000
v -52.000000 0.000000 -3.500001
v -52.000000 0.000000 3.499999
v -52.000000 0.000000 26.499998
v -52.000000 0.000000 33.500000
v -52.000000 16.000000 33.500000
v -52.000000 16.000000 26.499998
v -52.000000 16.000000 3.499999
v -52.000000 16.000000 -3.500001
v -50.000000 0.000000 33.500000
v -50.000000 0.000000 26.499998
v -50.000000 0.000000 3.499999
v -50.000000 0.000000 -3.500001
v -50.000000 16.000000 -3.500001
v -50.000000 16.000000 3.499999
v -50.000000 16.000000 26.499998
v -50.000000 16.000000 33.500000
v -52.000000 8.000000 50.000000
v -52.000000 8.000000 -50.000000
v -50.000000 8.000000 -50.000000
v -50.000000 8.000000 50.000000
v -50.000000 8.000000 -3.500001
v -50.000000 8.000000 3.499999
v -50.000000 8.000000 26.499998
v -50.000000 8.000000 33.500000
v -52.000000 8.000000 33.500000
v -52.000000 8.000000 26.499998
v -52.000000 8.000000 3.499999
v -52.000000 8.000000 -3.500001
vn -1.0000 -0.0000 -0.0000
vn -0.0000 -0.0000 -1.0000
vn 1.0000 -0.0000 -0.0000
vn -0.0000 -0.0000 1.0000
vn -0.0000 -1.0000 -0.0000
vn -0.0000 1.0000 -0.0000
vt 0.500000 0.200000
vt 0.625000 0.200000
vt 0.625000 0.250000
vt 0.500000 0.250000
vt 0.625000 0.500000
vt 0.500000 0.500000
vt 0.500000 0.700000
vt 0.625000 0.700000
vt 0.625000 0.750000
vt 0.500000 0.750000
vt 0.625000 1.000000
vt 0.500000 1.000000
vt 0.125000 0.700000
vt 0.375000 0.700000
vt 0.375000 0.750000
vt 0.125000 0.750000
vt 0.875000 0.700000
vt 0.875000 0.750000
vt 0.875000 0.500000
vt 0.875000 0.550000
vt 0.625000 0.550000
vt 0.875000 0.600000
vt 0.625000 0.600000
vt 0.875000 0.650000
vt 0.625000 0.650000
vt 0.125000 0.500000
vt 0.375000 0.500000
vt 0.375000 0.550000
vt 0.125000 0.550000
vt 0.000000 0.000000
vt 0.125000 0.600000
vt 0.375000 0.600000
vt 0.375000 0.650000
vt 0.125000 0.650000
vt 0.500000 0.550000
vt 0.500000 0.600000
vt 0.500000 0.650000
vt 0.500000 0.000000
vt 0.625000 0.000000
vt 0.625000 0.050000
vt 0.500000 0.050000
vt 0.625000 0.100000
vt 0.500000 0.100000
vt 0.625000 0.150000
vt 0.500000 0.150000
vt 0.375000 0.100000
vt 0.375000 0.150000
vt 0.375000 0.000000
vt 0.375000 0.050000
vt 0.375000 1.000000
vt 0.375000 0.250000
vt 0.375000 0.200000
s 0
f 72/61/26 52/62/26 40/63/26 62/64/26
f 62/64/27 40/63/27 44/65/27 63/66/27
f 68/67/28 60/68/28 42/69/28 64/70/28
f 64/70/29 42/69/29 38/71/29 61/72/29
f 48/73/30 53/74/30 41/75/30 37/76/30
f 60/68/31 49/77/31 38/78/31 42/69/31
f 44/65/31 40/79/31 52/80/31 57/81/31
f 57/81/31 52/80/31 51/82/31 58/83/31
f 58/83/31 51/82/31 50/84/31 59/85/31
f 59/85/31 50/84/31 49/77/31 60/68/31
f 39/86/30 43/87/30 56/88/30 45/89/30
f 45/89/30 56/88/30 55/90/30 46/90/30
f 46/91/30 55/92/30 54/93/30 47/94/30
f 47/94/30 54/93/30 53/74/30 48/73/30
f 63/66/28 44/65/28 57/81/28 65/95/28
f 65/95/28 57/81/28 58/83/28 66/96/28
f 66/96/28 58/83/28 59/85/28 67/97/28
f 67/97/28 59/85/28 60/68/28 68/67/28
f 61/98/26 38/99/26 49/100/26 69/101/26
f 69/101/26 49/100/26 50/102/26 70/103/26
f 70/103/26 50/102/26 51/104/26 71/105/26
f 71/105/26 51/104/26 52/62/26 72/61/26
f 71/105/30 72/90/30 65/95/30 66/96/30
f 47/106/26 70/103/26 71/105/26 46/107/26
f 54/90/29 67/90/29 70/90/29 47/90/29
f 37/108/26 61/98/26 69/101/26 48/109/26
f 66/90/27 55/90/27 46/90/27 71/90/27
f 55/92/28 66/96/28 67/97/28 54/93/28
f 56/90/29 65/90/29 72/90/29 45/90/29
f 43/87/28 63/66/28 65/95/28 56/88/28
f 41/75/29 64/70/29 61/72/29 37/110/29
f 53/74/28 68/67/28 64/70/28 41/75/28
f 39/111/27 62/64/27 63/66/27 43/87/27
f 45/112/26 72/61/26 62/64/26 39/111/26
f 69/101/30 70/90/30 67/97/30 68/67/30
f 68/90/27 53/90/27 48/90/27 69/90/27
o Cube.005
v -37.000000 0.000000 50.000000
v -37.000000 16.000000 50.000000
v -37.000000 0.000000 10.000000
v -37.000000 16.000000 10.000000
v -35.000000 0.000000 50.000000
v -35.000000 16.000000 50.000000
v -35.000000 0.000000 10.000000
v -35.000000 16.000000 10.000000
v -37.000000 0.000000 39.333332
v -37.000000 0.000000 48.666664
v -37.000000 16.000000 48.666664
v -37.000000 16.000000 39.333332
v -35.000000 0.000000 48.666664
v -35.000000 0.000000 39.333332
v -35.000000 16.000000 39.333332
v -35.000000 16.000000 48.666664
vn -1.0000 -0.0000 -0.0000
vn -0.0000 -0.0000 -1.0000
vn 1.0000 -0.0000 -0.0000
vn -0.0000 -0.0000 1.0000
vn -0.0000 -1.0000 -0.0000
vn -0.0000 1.0000 -0.0000
vt 0.375000 0.166667
vt 0.625000 0.166667
vt 0.625000 0.250000
vt 0.375000 0.250000
vt 0.625000 0.500000
vt 0.375000 0.500000
vt 0.375000 0.666667
vt 0.625000 0.666667
vt 0.625000 0.750000
vt 0.375000 0.750000
vt 0.625000 1.000000
vt 0.375000 1.000000
vt 0.125000 0.666667
vt 0.125000 0.750000
vt 0.875000 0.666667
vt 0.875000 0.750000
vt 0.875000 0.500000
vt 0.875000 0.583333
vt 0.625000 0.583333
vt 0.125000 0.500000
vt 0.375000 0.583333
vt 0.125000 0.583333
vt 0.625000 0.083333
vt 0.375000 0.083333
vt 0.375000 0.000000
vt 0.625000 0.000000
s 0
f 81/113/32 84/114/32 76/115/32 75/116/32
f 75/116/33 76/115/33 80/117/33 79/118/33
f 85/119/34 88/120/34 78/121/34 77/122/34
f 77/122/35 78/121/35 74/123/35 73/124/35
f 82/125/36 85/119/36 77/122/36 73/126/36
f 88/120/37 83/127/37 74/128/37 78/121/37
f 80/117/37 76/129/37 84/130/37 87/131/37
f 75/132/36 79/118/36 86/133/36 81/134/36
f 79/118/34 80/117/34 87/131/34 86/133/34
f 83/135/33 88/120/33 85/119/33 82/136/33
f 73/137/32 74/138/32 83/135/32 82/136/32
f 84/114/35 81/113/35 86/133/35 87/131/35
o Cube.006
v -50.000000 0.000000 10.000000
v -50.000000 16.000000 10.000000
v -50.000000 0.000000 8.000000
v -50.000000 16.000000 8.000000
v -35.000000 0.000000 10.000000
v -35.000000 16.000000 10.000000
v -35.000000 0.000000 8.000000
v -35.000000 16.000000 8.000000
vn -1.0000 -0.0000 -0.0000
vn -0.0000 -0.0000 -1.0000
vn 1.0000 -0.0000 -0.0000
vn -0.0000 -0.0000 1.0000
vn -0.0000 -1.0000 -0.0000
vn -0.0000 1.0000 -0.0000
vt 0.375000 0.000000
vt 0.625000 0.000000
vt 0.625000 0.250000
vt 0.375000 0.250000
vt 0.625000 0.500000
vt 0.375000 0.500000
vt 0.625000 0.750000
vt 0.375000 0.750000
vt 0.625000 1.000000
vt 0.375000 1.000000
vt 0.125000 0.500000
vt 0.125000 0.750000
vt 0.875000 0.500000
vt 0.875000 0.750000
s 0
f 89/139/38 90/140/38 92/141/38 91/142/38
f 91/142/39 92/141/39 96/143/39 95/144/39
f 95/144/40 96/143/40 94/145/40 93/146/40
f 93/146/41 94/145/41 90/147/41 89/148/41
f 91/149/42 95/144/42 93/146/42 89/150/42
f 96/143/43 92/151/43 90/152/43 94/145/43
o Cube.007
v -50.000000 0.000000 -8.000000
v -50.000000 16.000000 -8.000000
v -50.000000 0.000000 -10.000000
v -50.000000 16.000000 -10.000000
v -33.333332 0.000000 -10.000000
v -23.910078 0.000000 -10.000000
v -23.910078 16.000000 -10.000000
v -23.910078 0.000000 -8.000000
v -23.910078 16.000000 -8.000000
vn -1.0000 -0.0000 -0.0000
vn -0.0000 -0.0000 1.0000
vn -0.0000 1.0000 -0.0000
vn -0.0000 -1.0000 -0.0000
vn -0.0000 -0.0000 -1.0000
vn 1.0000 -0.0000 -0.0000
vt 0.375000 0.000000
vt 0.625000 0.000000
vt 0.625000 0.250000
vt 0.375000 0.250000
vt 0.375000 0.916667
vt 0.625000 0.916667
vt 0.625000 1.000000
vt 0.375000 1.000000
vt 0.791667 0.500000
vt 0.875000 0.500000
vt 0.875000 0.750000
vt 0.791667 0.750000
vt 0.125000 0.500000
vt 0.208333 0.500000
vt 0.208333 0.750000
vt 0.125000 0.750000
vt 0.625000 0.333333
vt 0.375000 0.333333
s 0
f 97/153/44 98/154/44 100/155/44 99/156/44
f 104/157/45 105/158/45 98/159/45 97/160/45
f 103/161/46 100/162/46 98/163/46 105/164/46
f 99/165/47 102/166/47 104/167/47 97/168/47
f 99/156/48 100/155/48 103/169/48 102/170/48
f 105/158/49 104/157/49 102/166/49 103/169/49
o Cube.008
v -35.000000 0.000000 35.000000
v -35.000000 16.000000 35.000000
v -35.000000 0.000000 25.000000
v -35.000000 16.000000 25.000000
v 35.000000 0.000000 35.000000
v 35.000000 16.000000 35.000000
v 35.000000 0.000000 25.000000
v 35.000000 16.000000 25.000000
vn -1.0000 -0.0000 -0.0000
vn -0.0000 -0.0000 -1.0000
vn 1.0000 -0.0000 -0.0000
vn -0.0000 -0.0000 1.0000
vn -0.0000 -1.0000 -0.0000
vn -0.0000 1.0000 -0.0000
vt 0.375000 0.000000
vt 0.625000 0.000000
vt 0.625000 0.250000
vt 0.375000 0.250000
vt 0.625000 0.500000
vt 0.375000 0.500000
vt 0.625000 0.750000
vt 0.375000 0.750000
vt 0.625000 1.000000
vt 0.375000 1.000000
vt 0.125000 0.500000
vt 0.125000 0.750000
vt 0.875000 0.500000
vt 0.875000 0.750000
s 0
f 106/171/50 107/172/50 109/173/50 108/174/50
f 108/174/51 109/173/51 113/175/51 112/176/51
f 112/176/52 113/175/52 111/177/52 110/178/52
f 110/178/53 111/177/53 107/179/53 106/180/53
f 108/181/54 112/176/54 110/178/54 106/182/54
f 113/175/55 109/183/55 107/184/55 111/177/55
o Cube.009
v -50.000000 16.000000 50.000000
v -50.000000 18.000000 50.000000
v -50.000000 16.000000 -50.000000
v -50.000000 18.000000 -50.000000
v 50.000000 16.000000 50.000000
v 50.000000 18.000000 50.000000
v 50.000000 16.000000 -50.000000
v 50.000000 18.000000 -50.000000
vn -1.0000 -0.0000 -0.0000
vn -0.0000 -0.0000 -1.0000
vn 1.0000 -0.0000 -0.0000
vn -0.0000 -0.0000 1.0000
vn -0.0000 -1.0000 -0.0000
vn -0.0000 1.0000 -0.0000
vt 0.375000 0.000000
vt 0.625000 0.000000
vt 0.625000 0.250000
vt 0.375000 0.250000
vt 0.625000 0.500000
vt 0.375000 0.500000
vt 0.625000 0.750000
vt 0.375000 0.750000
vt 0.625000 1.000000
vt 0.375000 1.000000
vt 0.125000 0.500000
vt 0.125000 0.750000
vt 0.875000 0.500000
vt 0.875000 0.750000
s 0
f 114/185/56 115/186/56 117/187/56 116/188/56
f 116/188/57 117/187/57 121/189/57 120/190/57
f 120/190/58 121/189/58 119/191/58 118/192/58
f 118/192/59 119/191/59 115/193/59 114/194/59
f 116/195/60 120/190/60 118/192/60 114/196/60
f 121/189/61 117/197/61 115/198/61 119/191/61
